<svg version="1.1" viewBox="0.0 0.0 960.0 192.0" fill="none" stroke="none" stroke-linecap="square" stroke-miterlimit="10" xmlns:xlink="http://www.w3.org/1999/xlink" xmlns="http://www.w3.org/2000/svg"><clipPath id="p.0"><path d="m0 0l960.0 0l0 192.0l-960.0 0l0 -192.0z" clip-rule="nonzero"/></clipPath><g clip-path="url(#p.0)"><path fill="#ffffff" d="m0 0l960.0 0l0 192.0l-960.0 0z" fill-rule="evenodd"/><path fill="#000000" fill-opacity="0.0" d="m0 0l960.0 0l0 192.0l-960.0 0z" fill-rule="evenodd"/><path fill="#666666" d="m85.437805 39.723755l0 11.265625l-15.234375 0l0 93.4375l15.234375 0l0 11.265625l-29.1875 0l0 -115.96875l29.1875 0zm47.23201 0l0 11.265625l-15.234375 0l0 93.4375l15.234375 0l0 11.265625l-29.1875 0l0 -115.96875l29.1875 0z" fill-rule="nonzero"/><path fill="#4285f4" d="m161.72995 113.95813q4.484375 0 6.90625 2.6875q2.4375 2.6875 2.4375 6.921875q0 4.09375 -2.4375 6.90625q-2.421875 2.8125 -7.296875 2.8125q-4.46875 0 -6.84375 -2.8125q-2.375 -2.8125 -2.375 -6.65625q0 -4.09375 2.4375 -6.96875q2.4375 -2.890625 7.171875 -2.890625zm0 -47.359375q4.484375 0 6.90625 2.6875q2.4375 2.6875 2.4375 6.90625q0 4.109375 -2.4375 6.921875q-2.421875 2.8125 -7.296875 2.8125q-4.46875 0 -6.84375 -2.8125q-2.375 -2.8125 -2.375 -6.53125q0 -4.21875 2.4375 -7.09375q2.4375 -2.890625 7.171875 -2.890625zm97.148254 65.28125l0 -41.734375q0 -5.375 -1.671875 -8.5q-1.65625 -3.140625 -5.75 -3.140625q-2.4375 0 -4.9375 1.34375q-2.484375 1.34375 -4.53125 3.90625q-2.046875 2.5625 -3.328125 6.140625q-1.28125 3.578125 -1.28125 7.9375l0 34.046875l-14.46875 0l0 -41.734375q0 -5.375 -1.671875 -8.5q-1.65625 -3.140625 -5.75 -3.140625q-2.5625 0 -5.0625 1.46875q-2.484375 1.46875 -4.46875 4.296875q-1.984375 2.8125 -3.203125 6.84375q-1.21875 4.03125 -1.21875 9.015625l0 31.75l-14.59375 0l0 -32.25q0 -7.6875 -1.03125 -12.859375q-1.015625 -5.1875 -2.171875 -8.390625q-1.40625 -3.71875 -3.0625 -6.015625l11.515625 -4.609375q1.28125 1.40625 2.5625 3.453125q1.015625 1.796875 2.046875 4.421875q1.03125 2.625 1.65625 5.953125q3.203125 -7.6875 9.03125 -11.078125q5.828125 -3.390625 12.359375 -3.390625q6.515625 0 10.15625 3.328125q3.65625 3.328125 5.453125 8.578125q3.453125 -6.40625 8.890625 -9.15625q5.4375 -2.75 11.46875 -2.75q4.984375 0 8.375 1.609375q3.390625 1.59375 5.375 4.46875q1.984375 2.875 2.875 6.90625q0.90625 4.03125 0.90625 9.03125l0 42.75l-14.46875 0zm43.395782 -17.921875q4.484375 0 6.90625 2.6875q2.4375 2.6875 2.4375 6.921875q0 4.09375 -2.4375 6.90625q-2.421875 2.8125 -7.296875 2.8125q-4.46875 0 -6.84375 -2.8125q-2.375 -2.8125 -2.375 -6.65625q0 -4.09375 2.4375 -6.96875q2.4375 -2.890625 7.171875 -2.890625zm0 -47.359375q4.484375 0 6.90625 2.6875q2.4375 2.6875 2.4375 6.90625q0 4.109375 -2.4375 6.921875q-2.421875 2.8125 -7.296875 2.8125q-4.46875 0 -6.84375 -2.8125q-2.375 -2.8125 -2.375 -6.53125q0 -4.21875 2.4375 -7.09375q2.4375 -2.890625 7.171875 -2.890625z" fill-rule="nonzero"/><path fill="#db4437" d="m377.03162 79.27063q-1.921875 -5.25 -3.078125 -10.234375q-0.640625 2.421875 -1.21875 4.859375q-0.578125 2.4375 -1.46875 5.375l-16.640625 52.609375l-11.265625 0l-24.0625 -86.65625l15.234375 0l11.265625 43.390625q2.9375 11.265625 4.21875 18.171875q0.890625 -3.578125 2.109375 -7.921875q1.21875 -4.359375 3.015625 -10.0l13.5625 -43.640625l11.390625 0l13.5625 43.640625q1.796875 5.765625 3.078125 10.5q1.28125 4.734375 2.046875 8.328125q0.515625 -3.59375 1.46875 -8.328125q0.96875 -4.734375 2.5 -10.5l11.265625 -43.640625l15.484375 0l-24.0625 86.65625l-11.265625 0l-17.140625 -52.609375z" fill-rule="nonzero"/><path fill="#4285f4" d="m451.01364 132.39563q-6.796875 0 -10.375 -4.03125q-3.578125 -4.03125 -3.578125 -10.4375l0 -49.796875l14.59375 0l0 48.515625q0 2.953125 0.890625 3.984375q0.890625 1.015625 2.6875 1.015625q0.515625 0 1.078125 0q0.578125 0 1.09375 -0.140625q0.515625 0 1.15625 -0.125l1.53125 9.21875q-0.890625 0.515625 -2.296875 0.890625q-1.15625 0.390625 -2.890625 0.640625q-1.71875 0.265625 -3.890625 0.265625zm-6.40625 -92.671875q4.09375 0 6.265625 2.4375q2.1875 2.421875 2.1875 6.265625q0 3.84375 -2.25 6.40625q-2.234375 2.546875 -6.59375 2.546875q-4.09375 0 -6.328125 -2.484375q-2.234375 -2.5 -2.234375 -6.09375q0 -3.96875 2.234375 -6.515625q2.234375 -2.5625 6.71875 -2.5625z" fill-rule="nonzero"/><path fill="#0f9d58" d="m484.92227 39.08313l0 36.484375q1.03125 -1.28125 2.625 -2.75q1.609375 -1.484375 4.03125 -2.765625q2.4375 -1.28125 5.640625 -2.171875q3.203125 -0.890625 7.421875 -0.890625q3.96875 0 7.4218445 1.15625q3.453125 1.140625 5.953125 3.328125q2.5 2.171875 3.96875 5.3125q1.46875 3.125 1.46875 7.09375q0 5.765625 -2.375 9.484375q-2.359375 3.703125 -5.296875 5.875q-3.328125 2.5625 -7.6874695 4.09375l17.921844 28.546875l-16.515594 0l-18.421875 -31.875l-0.140625 -1.28125q1.03125 -0.25 3.90625 -1.140625q2.890625 -0.90625 5.953125 -2.5625q3.078125 -1.671875 5.4375 -4.15625q2.375 -2.5 2.375 -5.953125q0 -3.71875 -2.1875 -5.640625q-2.171875 -1.921875 -5.75 -1.921875q-4.859375 0 -7.9375 1.921875q-3.078125 1.921875 -4.8125 4.359375q-1.71875 2.421875 -2.359375 4.609375q-0.640625 2.171875 -0.640625 2.546875l0 41.09375l-14.59375 0l0 -90.234375l14.59375 -2.5625z" fill-rule="nonzero"/><path fill="#f4b400" d="m550.3417 132.39563q-6.796875 0 -10.375 -4.03125q-3.578125 -4.03125 -3.578125 -10.4375l0 -49.796875l14.59375 0l0 48.515625q0 2.953125 0.890625 3.984375q0.890625 1.015625 2.6875 1.015625q0.515625 0 1.078125 0q0.578125 0 1.09375 -0.140625q0.515625 0 1.15625 -0.125l1.53125 9.21875q-0.890625 0.515625 -2.296875 0.890625q-1.15625 0.390625 -2.890625 0.640625q-1.71875 0.265625 -3.890625 0.265625zm-6.40625 -92.671875q4.09375 0 6.265625 2.4375q2.1875 2.421875 2.1875 6.265625q0 3.84375 -2.25 6.40625q-2.234375 2.546875 -6.59375 2.546875q-4.09375 0 -6.328125 -2.484375q-2.234375 -2.5 -2.234375 -6.09375q0 -3.96875 2.234375 -6.515625q2.234375 -2.5625 6.71875 -2.5625z" fill-rule="nonzero"/><path fill="#db4437" d="m570.2972 45.223755l15.234375 0l0 75.140625l32.390625 0l0 11.515625l-47.625 0l0 -86.65625z" fill-rule="nonzero"/><path fill="#4285f4" d="m651.5763 66.598755q14.734375 0 21.390625 8.703125q6.65625 8.703125 6.65625 23.9375q0 7.171875 -1.796875 13.375q-1.796875 6.203125 -5.453125 10.75q-3.640625 4.546875 -9.140625 7.171875q-5.5 2.625 -12.796875 2.625q-7.296875 0 -12.609375 -2.234375q-5.3125 -2.25 -8.765625 -6.46875q-3.453125 -4.21875 -5.0625 -10.234375q-1.59375 -6.03125 -1.59375 -13.578125q0 -7.296875 1.78125 -13.5q1.796875 -6.203125 5.4375 -10.75q3.65625 -4.546875 9.15625 -7.171875q5.515625 -2.625 12.796875 -2.625zm-1.265625 10.75q-3.71875 0 -6.09375 1.671875q-2.359375 1.65625 -3.703125 4.671875q-1.34375 3.0 -1.859375 7.03125q-0.515625 4.03125 -0.515625 8.640625q0 4.734375 0.578125 8.96875q0.578125 4.21875 2.109375 7.359375q1.546875 3.125 4.171875 4.921875q2.625 1.796875 6.71875 1.796875q3.703125 0 6.0625 -1.65625q2.375 -1.671875 3.71875 -4.671875q1.34375 -3.015625 1.859375 -6.984375q0.515625 -3.96875 0.515625 -8.578125q0 -4.734375 -0.578125 -8.953125q-0.578125 -4.234375 -2.109375 -7.421875q-1.53125 -3.203125 -4.15625 -5.0q-2.625 -1.796875 -6.71875 -1.796875z" fill-rule="nonzero"/><path fill="#0f9d58" d="m717.7523 66.598755q14.734375 0 21.390625 8.703125q6.65625 8.703125 6.65625 23.9375q0 7.171875 -1.796875 13.375q-1.796875 6.203125 -5.453125 10.75q-3.640625 4.546875 -9.140625 7.171875q-5.5 2.625 -12.796875 2.625q-7.296875 0 -12.609375 -2.234375q-5.3125 -2.25 -8.765625 -6.46875q-3.453125 -4.21875 -5.0625 -10.234375q-1.59375 -6.03125 -1.59375 -13.578125q0 -7.296875 1.78125 -13.5q1.796875 -6.203125 5.4375 -10.75q3.65625 -4.546875 9.15625 -7.171875q5.515625 -2.625 12.796875 -2.625zm-1.265625 10.75q-3.71875 0 -6.09375 1.671875q-2.359375 1.65625 -3.703125 4.671875q-1.34375 3.0 -1.859375 7.03125q-0.515625 4.03125 -0.515625 8.640625q0 4.734375 0.578125 8.96875q0.578125 4.21875 2.109375 7.359375q1.546875 3.125 4.171875 4.921875q2.625 1.796875 6.71875 1.796875q3.703125 0 6.0625 -1.65625q2.375 -1.671875 3.71875 -4.671875q1.34375 -3.015625 1.859375 -6.984375q0.515625 -3.96875 0.515625 -8.578125q0 -4.734375 -0.578125 -8.953125q-0.578125 -4.234375 -2.109375 -7.421875q-1.53125 -3.203125 -4.15625 -5.0q-2.625 -1.796875 -6.71875 -1.796875z" fill-rule="nonzero"/><path fill="#f4b400" d="m759.74084 160.16125l0 -60.53125q0 -7.6875 -1.03125 -12.859375q-1.015625 -5.1875 -2.171875 -8.390625q-1.40625 -3.71875 -3.0625 -6.015625l11.515625 -4.609375q1.53125 1.53125 2.8125 3.84375q1.03125 1.90625 2.046875 4.671875q1.03125 2.75 1.546875 6.453125q2.171875 -7.671875 6.90625 -11.640625q4.734375 -3.96875 13.1875 -3.96875q6.015625 0 10.421875 2.25q4.421875 2.234375 7.296875 6.390625q2.890625 4.15625 4.296875 10.046875q1.40625 5.890625 1.40625 13.046875q0 7.296875 -2.1875 13.515625q-2.171875 6.203125 -6.203125 10.6875q-4.03125 4.46875 -9.671875 7.03125q-5.625 2.5625 -12.53125 2.5625q-2.4375 0 -4.9375 -0.265625q-2.484375 -0.25 -5.046875 -0.5l0 25.734375l-14.59375 2.546875zm29.3125 -82.8125q-3.203125 0 -5.890625 2.1875q-2.6875 2.171875 -4.671875 5.75q-1.984375 3.578125 -3.078125 8.0625q-1.078125 4.484375 -1.078125 9.21875l0 18.4375q1.28125 0.375 3.84375 0.890625q2.5625 0.515625 4.484375 0.515625q4.859375 0 8.046875 -1.65625q3.203125 -1.671875 5.125 -4.609375q1.921875 -2.953125 2.6875 -7.046875q0.78125 -4.09375 0.78125 -8.96875q0 -4.46875 -0.265625 -8.5625q-0.25 -4.109375 -1.34375 -7.296875q-1.078125 -3.203125 -3.140625 -5.0625q-2.046875 -1.859375 -5.5 -1.859375z" fill-rule="nonzero"/><path fill="#666666" d="m856.50446 155.6925l-29.171875 0l0 -11.265625l15.234375 0l0 -93.4375l-15.234375 0l0 -11.265625l29.171875 0l0 115.96875zm47.231995 0l-29.171875 0l0 -11.265625l15.234375 0l0 -93.4375l-15.234375 0l0 -11.265625l29.171875 0l0 115.96875z" fill-rule="nonzero"/></g></svg>