<svg version="1.1" viewBox="0.0 0.0 960.0 480.0" fill="none" stroke="none" stroke-linecap="square" stroke-miterlimit="10" xmlns:xlink="http://www.w3.org/1999/xlink" xmlns="http://www.w3.org/2000/svg"><clipPath id="p.0"><path d="m0 0l960.0 0l0 480.0l-960.0 0l0 -480.0z" clip-rule="nonzero"/></clipPath><g clip-path="url(#p.0)"><path fill="#ffffff" d="m0 0l960.0 0l0 480.0l-960.0 0z" fill-rule="evenodd"/><path fill="#000000" fill-opacity="0.0" d="m0 240.0l960.0 0l0 240.0l-960.0 0z" fill-rule="evenodd"/><path fill="#666666" d="m85.437805 279.72375l0 11.265625l-15.234375 0l0 93.4375l15.234375 0l0 11.265625l-29.1875 0l0 -115.96875l29.1875 0zm47.23201 0l0 11.265625l-15.234375 0l0 93.4375l15.234375 0l0 11.265625l-29.1875 0l0 -115.96875l29.1875 0z" fill-rule="nonzero"/><path fill="#4285f4" d="m161.72995 353.95813q4.484375 0 6.90625 2.6875q2.4375 2.6875 2.4375 6.921875q0 4.09375 -2.4375 6.90625q-2.421875 2.8125 -7.296875 2.8125q-4.46875 0 -6.84375 -2.8125q-2.375 -2.8125 -2.375 -6.65625q0 -4.09375 2.4375 -6.96875q2.4375 -2.890625 7.171875 -2.890625zm0 -47.359375q4.484375 0 6.90625 2.6875q2.4375 2.6875 2.4375 6.90625q0 4.109375 -2.4375 6.921875q-2.421875 2.8125 -7.296875 2.8125q-4.46875 0 -6.84375 -2.8125q-2.375 -2.8125 -2.375 -6.53125q0 -4.21875 2.4375 -7.09375q2.4375 -2.890625 7.171875 -2.890625zm97.148254 65.28125l0 -41.734375q0 -5.375 -1.671875 -8.5q-1.65625 -3.140625 -5.75 -3.140625q-2.4375 0 -4.9375 1.34375q-2.484375 1.34375 -4.53125 3.90625q-2.046875 2.5625 -3.328125 6.140625q-1.28125 3.578125 -1.28125 7.9375l0 34.046875l-14.46875 0l0 -41.734375q0 -5.375 -1.671875 -8.5q-1.65625 -3.140625 -5.75 -3.140625q-2.5625 0 -5.0625 1.46875q-2.484375 1.46875 -4.46875 4.296875q-1.984375 2.8125 -3.203125 6.84375q-1.21875 4.03125 -1.21875 9.015625l0 31.75l-14.59375 0l0 -32.25q0 -7.6875 -1.03125 -12.859375q-1.015625 -5.1875 -2.171875 -8.390625q-1.40625 -3.71875 -3.0625 -6.015625l11.515625 -4.609375q1.28125 1.40625 2.5625 3.453125q1.015625 1.796875 2.046875 4.421875q1.03125 2.625 1.65625 5.953125q3.203125 -7.6875 9.03125 -11.078125q5.828125 -3.390625 12.359375 -3.390625q6.515625 0 10.15625 3.328125q3.65625 3.328125 5.453125 8.578125q3.453125 -6.40625 8.890625 -9.15625q5.4375 -2.75 11.46875 -2.75q4.984375 0 8.375 1.609375q3.390625 1.59375 5.375 4.46875q1.984375 2.875 2.875 6.90625q0.90625 4.03125 0.90625 9.03125l0 42.75l-14.46875 0zm43.395782 -17.921875q4.484375 0 6.90625 2.6875q2.4375 2.6875 2.4375 6.921875q0 4.09375 -2.4375 6.90625q-2.421875 2.8125 -7.296875 2.8125q-4.46875 0 -6.84375 -2.8125q-2.375 -2.8125 -2.375 -6.65625q0 -4.09375 2.4375 -6.96875q2.4375 -2.890625 7.171875 -2.890625zm0 -47.359375q4.484375 0 6.90625 2.6875q2.4375 2.6875 2.4375 6.90625q0 4.109375 -2.4375 6.921875q-2.421875 2.8125 -7.296875 2.8125q-4.46875 0 -6.84375 -2.8125q-2.375 -2.8125 -2.375 -6.53125q0 -4.21875 2.4375 -7.09375q2.4375 -2.890625 7.171875 -2.890625z" fill-rule="nonzero"/><path fill="#db4437" d="m377.03162 319.27063q-1.921875 -5.25 -3.078125 -10.234375q-0.640625 2.421875 -1.21875 4.859375q-0.578125 2.4375 -1.46875 5.375l-16.640625 52.609375l-11.265625 0l-24.0625 -86.65625l15.234375 0l11.265625 43.390625q2.9375 11.265625 4.21875 18.171875q0.890625 -3.578125 2.109375 -7.921875q1.21875 -4.359375 3.015625 -10.0l13.5625 -43.640625l11.390625 0l13.5625 43.640625q1.796875 5.765625 3.078125 10.5q1.28125 4.734375 2.046875 8.328125q0.515625 -3.59375 1.46875 -8.328125q0.96875 -4.734375 2.5 -10.5l11.265625 -43.640625l15.484375 0l-24.0625 86.65625l-11.265625 0l-17.140625 -52.609375z" fill-rule="nonzero"/><path fill="#4285f4" d="m451.01364 372.39563q-6.796875 0 -10.375 -4.03125q-3.578125 -4.03125 -3.578125 -10.4375l0 -49.796875l14.59375 0l0 48.515625q0 2.953125 0.890625 3.984375q0.890625 1.015625 2.6875 1.015625q0.515625 0 1.078125 0q0.578125 0 1.09375 -0.140625q0.515625 0 1.15625 -0.125l1.53125 9.21875q-0.890625 0.515625 -2.296875 0.890625q-1.15625 0.390625 -2.890625 0.640625q-1.71875 0.265625 -3.890625 0.265625zm-6.40625 -92.671875q4.09375 0 6.265625 2.4375q2.1875 2.421875 2.1875 6.265625q0 3.84375 -2.25 6.40625q-2.234375 2.546875 -6.59375 2.546875q-4.09375 0 -6.328125 -2.484375q-2.234375 -2.5 -2.234375 -6.09375q0 -3.96875 2.234375 -6.515625q2.234375 -2.5625 6.71875 -2.5625z" fill-rule="nonzero"/><path fill="#0f9d58" d="m484.92227 279.08313l0 36.484375q1.03125 -1.28125 2.625 -2.75q1.609375 -1.484375 4.03125 -2.765625q2.4375 -1.28125 5.640625 -2.171875q3.203125 -0.890625 7.421875 -0.890625q3.96875 0 7.4218445 1.15625q3.453125 1.140625 5.953125 3.328125q2.5 2.171875 3.96875 5.3125q1.46875 3.125 1.46875 7.09375q0 5.765625 -2.375 9.484375q-2.359375 3.703125 -5.296875 5.875q-3.328125 2.5625 -7.6874695 4.09375l17.921844 28.546875l-16.515594 0l-18.421875 -31.875l-0.140625 -1.28125q1.03125 -0.25 3.90625 -1.140625q2.890625 -0.90625 5.953125 -2.5625q3.078125 -1.671875 5.4375 -4.15625q2.375 -2.5 2.375 -5.953125q0 -3.71875 -2.1875 -5.640625q-2.171875 -1.921875 -5.75 -1.921875q-4.859375 0 -7.9375 1.921875q-3.078125 1.921875 -4.8125 4.359375q-1.71875 2.421875 -2.359375 4.609375q-0.640625 2.171875 -0.640625 2.546875l0 41.09375l-14.59375 0l0 -90.234375l14.59375 -2.5625z" fill-rule="nonzero"/><path fill="#f4b400" d="m550.3417 372.39563q-6.796875 0 -10.375 -4.03125q-3.578125 -4.03125 -3.578125 -10.4375l0 -49.796875l14.59375 0l0 48.515625q0 2.953125 0.890625 3.984375q0.890625 1.015625 2.6875 1.015625q0.515625 0 1.078125 0q0.578125 0 1.09375 -0.140625q0.515625 0 1.15625 -0.125l1.53125 9.21875q-0.890625 0.515625 -2.296875 0.890625q-1.15625 0.390625 -2.890625 0.640625q-1.71875 0.265625 -3.890625 0.265625zm-6.40625 -92.671875q4.09375 0 6.265625 2.4375q2.1875 2.421875 2.1875 6.265625q0 3.84375 -2.25 6.40625q-2.234375 2.546875 -6.59375 2.546875q-4.09375 0 -6.328125 -2.484375q-2.234375 -2.5 -2.234375 -6.09375q0 -3.96875 2.234375 -6.515625q2.234375 -2.5625 6.71875 -2.5625z" fill-rule="nonzero"/><path fill="#db4437" d="m570.2972 285.22375l15.234375 0l0 75.140625l32.390625 0l0 11.515625l-47.625 0l0 -86.65625z" fill-rule="nonzero"/><path fill="#4285f4" d="m651.5763 306.59875q14.734375 0 21.390625 8.703125q6.65625 8.703125 6.65625 23.9375q0 7.171875 -1.796875 13.375q-1.796875 6.203125 -5.453125 10.75q-3.640625 4.546875 -9.140625 7.171875q-5.5 2.625 -12.796875 2.625q-7.296875 0 -12.609375 -2.234375q-5.3125 -2.25 -8.765625 -6.46875q-3.453125 -4.21875 -5.0625 -10.234375q-1.59375 -6.03125 -1.59375 -13.578125q0 -7.296875 1.78125 -13.5q1.796875 -6.203125 5.4375 -10.75q3.65625 -4.546875 9.15625 -7.171875q5.515625 -2.625 12.796875 -2.625zm-1.265625 10.75q-3.71875 0 -6.09375 1.671875q-2.359375 1.65625 -3.703125 4.671875q-1.34375 3.0 -1.859375 7.03125q-0.515625 4.03125 -0.515625 8.640625q0 4.734375 0.578125 8.96875q0.578125 4.21875 2.109375 7.359375q1.546875 3.125 4.171875 4.921875q2.625 1.796875 6.71875 1.796875q3.703125 0 6.0625 -1.65625q2.375 -1.671875 3.71875 -4.671875q1.34375 -3.015625 1.859375 -6.984375q0.515625 -3.96875 0.515625 -8.578125q0 -4.734375 -0.578125 -8.953125q-0.578125 -4.234375 -2.109375 -7.421875q-1.53125 -3.203125 -4.15625 -5.0q-2.625 -1.796875 -6.71875 -1.796875z" fill-rule="nonzero"/><path fill="#0f9d58" d="m717.7523 306.59875q14.734375 0 21.390625 8.703125q6.65625 8.703125 6.65625 23.9375q0 7.171875 -1.796875 13.375q-1.796875 6.203125 -5.453125 10.75q-3.640625 4.546875 -9.140625 7.171875q-5.5 2.625 -12.796875 2.625q-7.296875 0 -12.609375 -2.234375q-5.3125 -2.25 -8.765625 -6.46875q-3.453125 -4.21875 -5.0625 -10.234375q-1.59375 -6.03125 -1.59375 -13.578125q0 -7.296875 1.78125 -13.5q1.796875 -6.203125 5.4375 -10.75q3.65625 -4.546875 9.15625 -7.171875q5.515625 -2.625 12.796875 -2.625zm-1.265625 10.75q-3.71875 0 -6.09375 1.671875q-2.359375 1.65625 -3.703125 4.671875q-1.34375 3.0 -1.859375 7.03125q-0.515625 4.03125 -0.515625 8.640625q0 4.734375 0.578125 8.96875q0.578125 4.21875 2.109375 7.359375q1.546875 3.125 4.171875 4.921875q2.625 1.796875 6.71875 1.796875q3.703125 0 6.0625 -1.65625q2.375 -1.671875 3.71875 -4.671875q1.34375 -3.015625 1.859375 -6.984375q0.515625 -3.96875 0.515625 -8.578125q0 -4.734375 -0.578125 -8.953125q-0.578125 -4.234375 -2.109375 -7.421875q-1.53125 -3.203125 -4.15625 -5.0q-2.625 -1.796875 -6.71875 -1.796875z" fill-rule="nonzero"/><path fill="#f4b400" d="m759.74084 400.16125l0 -60.53125q0 -7.6875 -1.03125 -12.859375q-1.015625 -5.1875 -2.171875 -8.390625q-1.40625 -3.71875 -3.0625 -6.015625l11.515625 -4.609375q1.53125 1.53125 2.8125 3.84375q1.03125 1.90625 2.046875 4.671875q1.03125 2.75 1.546875 6.453125q2.171875 -7.671875 6.90625 -11.640625q4.734375 -3.96875 13.1875 -3.96875q6.015625 0 10.421875 2.25q4.421875 2.234375 7.296875 6.390625q2.890625 4.15625 4.296875 10.046875q1.40625 5.890625 1.40625 13.046875q0 7.296875 -2.1875 13.515625q-2.171875 6.203125 -6.203125 10.6875q-4.03125 4.46875 -9.671875 7.03125q-5.625 2.5625 -12.53125 2.5625q-2.4375 0 -4.9375 -0.265625q-2.484375 -0.25 -5.046875 -0.5l0 25.734375l-14.59375 2.546875zm29.3125 -82.8125q-3.203125 0 -5.890625 2.1875q-2.6875 2.171875 -4.671875 5.75q-1.984375 3.578125 -3.078125 8.0625q-1.078125 4.484375 -1.078125 9.21875l0 18.4375q1.28125 0.375 3.84375 0.890625q2.5625 0.515625 4.484375 0.515625q4.859375 0 8.046875 -1.65625q3.203125 -1.671875 5.125 -4.609375q1.921875 -2.953125 2.6875 -7.046875q0.78125 -4.09375 0.78125 -8.96875q0 -4.46875 -0.265625 -8.5625q-0.25 -4.109375 -1.34375 -7.296875q-1.078125 -3.203125 -3.140625 -5.0625q-2.046875 -1.859375 -5.5 -1.859375z" fill-rule="nonzero"/><path fill="#666666" d="m856.50446 395.6925l-29.171875 0l0 -11.265625l15.234375 0l0 -93.4375l-15.234375 0l0 -11.265625l29.171875 0l0 115.96875zm47.231995 0l-29.171875 0l0 -11.265625l15.234375 0l0 -93.4375l-15.234375 0l0 -11.265625l29.171875 0l0 115.96875z" fill-rule="nonzero"/><path fill="#000000" fill-opacity="0.0" d="m0 0l960.0 0l0 240.0l-960.0 0z" fill-rule="evenodd"/><path fill="#000000" d="m47.499878 56.59375q1.40625 0 6.40625 -0.09375q5.0 -0.09375 11.1875 -0.09375q6.203125 0 12.40625 -0.09375q6.203125 -0.109375 10.203125 -0.109375q23.203125 0 35.296875 9.203125q12.09375 9.1875 12.09375 26.0q0 9.796875 -5.40625 17.59375q-5.390625 7.796875 -14.984375 12.59375q12.0 4.609375 18.296875 13.015625q6.296875 8.390625 6.296875 19.390625q0 17.203125 -13.0 27.703125q-13.0 10.5 -39.390625 10.5q-5.40625 0 -11.609375 0q-6.203125 0 -11.796875 -0.109375q-5.59375 -0.09375 -9.90625 -0.09375q-4.296875 0 -6.09375 0l0 -135.40625zm23.796875 118.40625l17.203125 0q13.59375 0 19.5 -6.09375q5.90625 -6.109375 5.90625 -15.3125q0 -4.1875 -1.3125 -8.1875q-1.296875 -4.0 -4.5 -7.203125q-3.1875 -3.203125 -8.5 -5.09375q-5.296875 -1.90625 -13.296875 -1.90625q-4.796875 0 -8.5 0q-3.703125 0 -6.5 0.203125l0 43.59375zm0 -60.796875l15.40625 0q12.59375 0 17.984375 -5.796875q5.40625 -5.8125 5.40625 -14.203125q0 -3.796875 -1.203125 -7.59375q-1.1875 -3.8125 -4.09375 -6.8125q-2.890625 -3.0 -7.796875 -4.796875q-4.90625 -1.796875 -12.296875 -1.796875q-4.40625 0 -7.703125 0q-3.296875 0 -5.703125 0.203125l0 40.796875zm168.6094 29.59375q0 12.0 1.5 20.109375q1.5 8.09375 3.296875 13.09375q2.203125 6.0 4.796875 9.40625l-17.796875 7.1875q-2.609375 -2.59375 -4.796875 -6.1875q-1.8125 -3.203125 -3.40625 -7.703125q-1.59375 -4.5 -2.0 -10.703125q-3.40625 12.0 -10.90625 18.109375q-7.5 6.09375 -20.296875 6.09375q-9.390625 0 -16.296875 -3.5q-6.90625 -3.5 -11.5 -10.0q-4.59375 -6.5 -6.796875 -15.703125q-2.203125 -9.203125 -2.203125 -20.40625q0 -11.390625 3.5 -21.09375q3.5 -9.703125 9.796875 -16.703125q6.296875 -7.0 15.09375 -11.0q8.8125 -4.0 19.40625 -4.0q6.0 0 12.5 0.90625q6.5 0.890625 12.09375 1.890625q5.609375 1.0 9.5 1.90625q3.90625 0.90625 4.515625 1.09375l0 47.203125zm-45.8125 33.40625q5.0 0 9.203125 -3.390625q4.203125 -3.40625 7.296875 -8.90625q3.109375 -5.5 4.796875 -12.59375q1.703125 -7.109375 1.703125 -14.515625l0 -28.796875q-2.0 -0.59375 -6.0 -1.390625q-4.0 -0.8125 -7.1875 -0.8125q-7.609375 0 -12.515625 2.609375q-4.890625 2.59375 -7.890625 7.203125q-3.0 4.59375 -4.203125 11.0q-1.203125 6.390625 -1.203125 13.984375q0 7.0 0.40625 13.40625q0.40625 6.40625 2.09375 11.40625q1.703125 5.0 4.90625 7.90625q3.203125 2.890625 8.59375 2.890625zm61.606277 -84.796875l18.000015 0l4.0 -23.40625l18.796875 -4.203125l0 27.609375l24.609375 0l-2.8125 16.1875l-21.796875 0l0 59.203125q0 5.203125 2.796875 6.703125q2.8125 1.5 6.203125 1.5q2.796875 0 5.59375 -0.390625q2.8125 -0.40625 5.015625 -1.015625q2.59375 -0.59375 5.0 -1.390625l3.796875 15.0l-1.796875 0.59375q-1.8125 0.796875 -5.3125 1.703125q-3.5 0.90625 -8.203125 1.59375q-4.6875 0.703125 -10.296875 0.703125q-5.59375 0 -10.296875 -1.1875q-4.703125 -1.203125 -8.109375 -3.90625q-3.390625 -2.703125 -5.296875 -6.90625q-1.890625 -4.203125 -1.890625 -10.390625l0 -61.8125l-18.000015 0l0 -16.1875zm72.20003 0l18.0 0l4.0 -23.40625l18.796875 -4.203125l0 27.609375l24.609375 0l-2.8125 16.1875l-21.796875 0l0 59.203125q0 5.203125 2.796875 6.703125q2.8125 1.5 6.203125 1.5q2.796875 0 5.59375 -0.390625q2.8125 -0.40625 5.015625 -1.015625q2.59375 -0.59375 5.0 -1.390625l3.796875 15.0l-1.796875 0.59375q-1.8125 0.796875 -5.3125 1.703125q-3.5 0.90625 -8.203125 1.59375q-4.6875 0.703125 -10.296875 0.703125q-5.59375 0 -10.296875 -1.1875q-4.703125 -1.203125 -8.109375 -3.90625q-3.390625 -2.703125 -5.296875 -6.90625q-1.890625 -4.203125 -1.890625 -10.390625l0 -61.8125l-18.0 0l0 -16.1875zm104.40314 100.390625q-11.40625 0 -16.8125 -6.296875q-5.390625 -6.296875 -5.390625 -16.09375l0 -119.40625l22.796875 -4.203125l0 121.40625q0 4.59375 1.796875 6.40625q1.8125 1.796875 5.203125 1.796875q2.0 0 3.890625 -0.203125q1.90625 -0.203125 3.515625 -0.609375q1.796875 -0.390625 3.203125 -0.796875l2.796875 14.40625q-2.609375 1.0 -5.796875 1.796875q-2.8125 0.796875 -6.609375 1.296875q-3.796875 0.5 -8.59375 0.5zm27.996887 -48.203125q0 -13.390625 3.703125 -23.59375q3.703125 -10.203125 10.203125 -17.09375q6.5 -6.90625 15.296875 -10.40625q8.796875 -3.5 19.0 -3.5q9.0 0 15.296875 2.203125q6.296875 2.203125 10.296875 6.0q4.0 3.796875 5.890625 9.0q1.90625 5.203125 1.90625 11.203125q0 7.1875 -4.0 13.6875q-4.0 6.5 -11.5 11.40625q-7.5 4.90625 -18.09375 7.8125q-10.59375 2.890625 -23.796875 3.09375q0.59375 4.59375 1.890625 8.703125q1.3125 4.09375 3.8125 7.203125q2.5 3.09375 6.5 4.890625q4.0 1.796875 10.0 1.796875q4.390625 0 9.390625 -1.0q5.0 -1.0 9.203125 -2.40625q5.0 -1.59375 9.796875 -3.59375l6.0 14.203125q-5.203125 2.59375 -11.203125 4.59375q-5.1875 1.796875 -12.0 3.203125q-6.796875 1.40625 -14.390625 1.40625q-11.609375 0 -19.8125 -3.5q-8.1875 -3.5 -13.390625 -9.90625q-5.203125 -6.40625 -7.609375 -15.40625q-2.390625 -9.0 -2.390625 -20.0zm46.40625 -39.0q-6.609375 0 -10.90625 3.109375q-4.296875 3.09375 -6.90625 8.0q-2.59375 4.890625 -3.703125 11.0q-1.09375 6.09375 -1.296875 12.296875q9.609375 -0.40625 16.296875 -2.5q6.703125 -2.09375 10.90625 -5.1875q4.203125 -3.109375 6.09375 -6.703125q1.90625 -3.609375 1.90625 -7.203125q0 -5.8125 -3.40625 -9.3125q-3.390625 -3.5 -8.984375 -3.5zm106.78754 -36.59375q-0.59375 -0.59375 -3.703125 -2.1875q-3.09375 -1.609375 -5.890625 -1.609375q-1.796875 0 -4.40625 0.5q-2.59375 0.5 -5.0 2.203125q-2.390625 1.6875 -4.09375 4.890625q-1.703125 3.203125 -1.703125 8.40625q0 2.203125 0.296875 5.0q0.3125 2.796875 1.3125 6.203125l24.796875 0l-2.796875 16.1875l-20.8125 0l0 78.40625q0 12.0 -3.09375 20.09375q-3.09375 8.109375 -8.09375 13.609375q-5.0 5.5 -11.109375 9.1875q-6.09375 3.703125 -12.09375 6.703125l-9.203125 -15.1875q7.40625 -3.8125 11.59375 -8.109375q4.203125 -4.296875 6.296875 -8.59375q2.109375 -4.296875 2.5 -8.296875q0.40625 -4.0 0.40625 -7.203125l0 -80.609375l-18.0 0l0 -16.1875l17.40625 0q-0.796875 -3.0 -1.109375 -6.203125q-0.296875 -3.203125 -0.296875 -6.0q0 -8.0 2.890625 -14.203125q2.90625 -6.203125 7.8125 -10.203125q4.90625 -4.0 11.40625 -6.09375q6.5 -2.109375 13.5 -2.109375q7.796875 0 12.796875 2.5q5.0 2.5 8.203125 5.90625l-9.8125 13.0zm38.806274 123.796875q-10.59375 0 -16.203125 -6.296875q-5.59375 -6.296875 -5.59375 -16.296875l0 -77.796875l22.796875 0l0 75.796875q0 4.59375 1.390625 6.203125q1.40625 1.59375 4.203125 1.59375q0.8125 0 1.703125 0q0.90625 0 1.703125 -0.203125q0.796875 0 1.796875 -0.203125l2.40625 14.40625q-1.40625 0.796875 -3.609375 1.40625q-1.796875 0.59375 -4.5 0.984375q-2.6875 0.40625 -6.09375 0.40625zm-10.0 -144.79688q6.40625 0 9.796875 3.796875q3.40625 3.796875 3.40625 9.796875q0 6.0 -3.5 10.0q-3.5 4.0 -10.296875 4.0q-6.40625 0 -9.90625 -3.890625q-3.5 -3.90625 -3.5 -9.5q0 -6.203125 3.5 -10.203125q3.5 -4.0 10.5 -4.0zm34.200012 96.59375q0 -13.390625 3.703125 -23.59375q3.703125 -10.203125 10.203125 -17.09375q6.5 -6.90625 15.296875 -10.40625q8.796875 -3.5 19.0 -3.5q9.0 0 15.296875 2.203125q6.296875 2.203125 10.296875 6.0q4.0 3.796875 5.890625 9.0q1.90625 5.203125 1.90625 11.203125q0 7.1875 -4.0 13.6875q-4.0 6.5 -11.5 11.40625q-7.5 4.90625 -18.09375 7.8125q-10.59375 2.890625 -23.796875 3.09375q0.59375 4.59375 1.890625 8.703125q1.3125 4.09375 3.8125 7.203125q2.5 3.09375 6.5 4.890625q4.0 1.796875 10.0 1.796875q4.390625 0 9.390625 -1.0q5.0 -1.0 9.203125 -2.40625q5.0 -1.59375 9.796875 -3.59375l6.0 14.203125q-5.203125 2.59375 -11.203125 4.59375q-5.1875 1.796875 -12.0 3.203125q-6.796875 1.40625 -14.390625 1.40625q-11.609375 0 -19.8125 -3.5q-8.1875 -3.5 -13.390625 -9.90625q-5.203125 -6.40625 -7.609375 -15.40625q-2.390625 -9.0 -2.390625 -20.0zm46.40625 -39.0q-6.609375 0 -10.90625 3.109375q-4.296875 3.09375 -6.90625 8.0q-2.59375 4.890625 -3.703125 11.0q-1.09375 6.09375 -1.296875 12.296875q9.609375 -0.40625 16.296875 -2.5q6.703125 -2.09375 10.90625 -5.1875q4.203125 -3.109375 6.09375 -6.703125q1.90625 -3.609375 1.90625 -7.203125q0 -5.8125 -3.40625 -9.3125q-3.390625 -3.5 -8.984375 -3.5zm75.39691 87.203125q-11.40625 0 -16.8125 -6.296875q-5.390625 -6.296875 -5.390625 -16.09375l0 -119.40625l22.796875 -4.203125l0 121.40625q0 4.59375 1.796875 6.40625q1.8125 1.796875 5.203125 1.796875q2.0 0 3.890625 -0.203125q1.90625 -0.203125 3.515625 -0.609375q1.796875 -0.390625 3.203125 -0.796875l2.796875 14.40625q-2.609375 1.0 -5.796875 1.796875q-2.8125 0.796875 -6.609375 1.296875q-3.796875 0.5 -8.59375 0.5zm106.20001 0.796875q-0.40625 -0.1875 -1.8125 -1.890625q-1.390625 -1.703125 -3.09375 -4.703125q-1.703125 -3.0 -3.296875 -7.5q-1.59375 -4.5 -2.0 -10.5q-3.40625 12.0 -10.90625 18.109375q-7.5 6.09375 -20.296875 6.09375q-9.390625 0 -16.296875 -3.5q-6.90625 -3.5 -11.5 -10.0q-4.59375 -6.5 -6.796875 -15.703125q-2.203125 -9.203125 -2.203125 -20.40625q0 -11.390625 3.5 -21.09375q3.5 -9.703125 9.796875 -16.703125q6.296875 -7.0 15.09375 -11.0q8.8125 -4.0 19.40625 -4.0q3.609375 0 7.703125 0.40625q4.09375 0.390625 8.09375 1.0l0 -45.203125l22.8125 4.0l0 92.796875q0 12.0 1.390625 19.90625q1.40625 7.890625 3.203125 12.796875q1.796875 4.90625 3.296875 7.109375q1.5 2.1875 1.703125 2.796875l-17.796875 7.1875zm-37.609375 -16.59375q5.0 0 9.203125 -3.390625q4.203125 -3.40625 7.296875 -8.90625q3.109375 -5.5 4.796875 -12.5q1.703125 -7.0 1.703125 -14.40625l0 -28.796875q-2.0 -0.59375 -6.0 -1.390625q-4.0 -0.8125 -7.1875 -0.8125q-7.609375 0 -12.515625 2.609375q-4.890625 2.59375 -7.890625 7.203125q-3.0 4.59375 -4.203125 11.0q-1.203125 6.390625 -1.203125 13.984375q0 7.0 0.40625 13.40625q0.40625 6.40625 2.09375 11.3125q1.703125 4.890625 4.90625 7.796875q3.203125 2.890625 8.59375 2.890625z" fill-rule="nonzero"/></g></svg>